<svg width="34" height="34" viewBox="0 0 34 34" fill="none" xmlns="http://www.w3.org/2000/svg">
<path d="M10.6084 19L14.0947 9.10156H16.2822L19.7822 19H17.8818L17.0547 16.5527H13.3291L12.5088 19H10.6084ZM16.5762 15.1172L15.2295 11.125H15.1475L13.8076 15.1172H16.5762ZM22.7354 19H20.958V9.10156H22.7354V19Z" fill="#0366C8"/>
<path d="M10.625 24.4386C12.3848 24.4386 13.8125 25.8663 13.8125 27.6262V28.6887L18.627 25.0761C19.1781 24.6643 19.8488 24.4386 20.5395 24.4386H29.75C30.3344 24.4386 30.8125 23.9604 30.8125 23.376V4.25018C30.8125 3.66578 30.3344 3.18764 29.75 3.18764H4.25C3.66563 3.18764 3.1875 3.66578 3.1875 4.25018V23.376C3.1875 23.9604 3.66563 24.4386 4.25 24.4386H10.625ZM13.8125 32.6733L13.7992 32.6866L13.4605 32.9389L12.325 33.789C12.0063 34.028 11.5746 34.0679 11.2094 33.8886C10.8441 33.7093 10.625 33.344 10.625 32.9389V27.6262H4.25C1.90586 27.6262 0 25.7202 0 23.376V4.25018C0 1.90594 1.90586 0 4.25 0H29.75C32.0941 0 34 1.90594 34 4.25018V23.376C34 25.7202 32.0941 27.6262 29.75 27.6262H20.5395L13.8125 32.6733Z" fill="#0366C8"/>
</svg>
