<svg width="50" height="33" viewBox="0 0 50 33" fill="none" xmlns="http://www.w3.org/2000/svg">
<path d="M23.0664 32.5859C20.1953 32.5859 18.7598 31.6484 18.7598 29.7734C18.7598 28.625 19.1113 27.4004 19.8145 26.0996C20.5176 24.7988 21.5312 23.5742 22.8555 22.4258C24.1914 21.2656 25.8027 20.3223 27.6895 19.5957C29.5879 18.8691 31.7266 18.5059 34.1055 18.5059C36.4961 18.5059 38.6348 18.8691 40.5215 19.5957C42.4199 20.3223 44.0312 21.2656 45.3555 22.4258C46.6914 23.5742 47.7109 24.7988 48.4141 26.0996C49.1172 27.4004 49.4688 28.625 49.4688 29.7734C49.4688 31.6484 48.0273 32.5859 45.1445 32.5859H23.0664ZM22.2227 29.9316H45.9883C46.2227 29.9316 46.3867 29.8965 46.4805 29.8262C46.5859 29.7559 46.6387 29.627 46.6387 29.4395C46.6387 28.7129 46.3633 27.8809 45.8125 26.9434C45.2734 26.0059 44.4707 25.0977 43.4043 24.2188C42.3379 23.3398 41.0254 22.6133 39.4668 22.0391C37.9082 21.4531 36.1211 21.1602 34.1055 21.1602C32.0898 21.1602 30.3027 21.4531 28.7441 22.0391C27.1973 22.6133 25.8906 23.3398 24.8242 24.2188C23.7578 25.0977 22.9492 26.0059 22.3984 26.9434C21.8594 27.8809 21.5898 28.7129 21.5898 29.4395C21.5898 29.627 21.6367 29.7559 21.7305 29.8262C21.8359 29.8965 22 29.9316 22.2227 29.9316ZM34.123 16.3086C32.7285 16.3086 31.457 15.9395 30.3086 15.2012C29.1602 14.4629 28.2402 13.4727 27.5488 12.2305C26.8691 10.9766 26.5293 9.59961 26.5293 8.09961C26.5293 6.61133 26.8691 5.25781 27.5488 4.03906C28.2402 2.82031 29.1602 1.84766 30.3086 1.12109C31.457 0.394531 32.7285 0.03125 34.123 0.03125C35.5293 0.03125 36.8066 0.388672 37.9551 1.10352C39.1035 1.81836 40.0176 2.78516 40.6973 4.00391C41.377 5.21094 41.7168 6.56445 41.7168 8.06445C41.7168 9.57617 41.3711 10.959 40.6797 12.2129C40 13.4551 39.0859 14.4512 37.9375 15.2012C36.7891 15.9395 35.5176 16.3086 34.123 16.3086ZM34.123 13.6543C34.9902 13.6543 35.7812 13.4082 36.4961 12.916C37.2227 12.4121 37.8027 11.7383 38.2363 10.8945C38.6699 10.0391 38.8867 9.0957 38.8867 8.06445C38.8867 7.04492 38.6699 6.13086 38.2363 5.32227C37.8145 4.50195 37.2402 3.85742 36.5137 3.38867C35.7988 2.91992 35.002 2.68555 34.123 2.68555C33.2559 2.68555 32.459 2.92578 31.7324 3.40625C31.0176 3.875 30.4434 4.51953 30.0098 5.33984C29.5762 6.16016 29.3594 7.08008 29.3594 8.09961C29.3594 9.13086 29.5762 10.0684 30.0098 10.9121C30.4551 11.7559 31.0352 12.4238 31.75 12.916C32.4766 13.4082 33.2676 13.6543 34.123 13.6543ZM4.08203 32.5859C2.89844 32.5859 2.00781 32.3398 1.41016 31.8477C0.8125 31.3672 0.513672 30.6348 0.513672 29.6504C0.513672 28.1973 0.859375 26.8027 1.55078 25.4668C2.24219 24.1191 3.19727 22.9238 4.41602 21.8809C5.64648 20.8262 7.06445 19.9941 8.66992 19.3848C10.2871 18.7754 12.0156 18.4707 13.8555 18.4707C14.8281 18.4707 15.7715 18.5586 16.6855 18.7344C17.5996 18.8984 18.4785 19.1504 19.3223 19.4902C20.1777 19.8184 20.9863 20.2285 21.748 20.7207C21.3496 21.002 20.9863 21.3008 20.6582 21.6172C20.3301 21.9219 20.0312 22.25 19.7617 22.6016C19.1875 22.2617 18.584 21.9805 17.9512 21.7578C17.3301 21.5352 16.6738 21.3652 15.9824 21.248C15.3027 21.1309 14.5938 21.0723 13.8555 21.0723C12.4141 21.0723 11.0488 21.3066 9.75977 21.7754C8.4707 22.2324 7.32812 22.8594 6.33203 23.6562C5.33594 24.4414 4.55078 25.3379 3.97656 26.3457C3.41406 27.3535 3.13281 28.4023 3.13281 29.4922C3.13281 29.668 3.17383 29.791 3.25586 29.8613C3.33789 29.9434 3.47266 29.9844 3.66016 29.9844H16.5273C16.4688 30.5234 16.5742 31.0332 16.8438 31.5137C17.1133 31.9941 17.459 32.3516 17.8809 32.5859H4.08203ZM13.873 16.4668C12.666 16.4668 11.5645 16.1445 10.5684 15.5C9.57227 14.8438 8.77539 13.9707 8.17773 12.8809C7.58008 11.791 7.28125 10.584 7.28125 9.25977C7.28125 7.95898 7.58008 6.77539 8.17773 5.70898C8.77539 4.63086 9.57227 3.77539 10.5684 3.14258C11.5645 2.49805 12.666 2.17578 13.873 2.17578C15.0918 2.17578 16.1992 2.49219 17.1953 3.125C18.1914 3.75781 18.9824 4.60742 19.5684 5.67383C20.166 6.74023 20.4648 7.92383 20.4648 9.22461C20.4648 10.5488 20.166 11.7617 19.5684 12.8633C18.9707 13.9648 18.1738 14.8438 17.1777 15.5C16.1816 16.1445 15.0801 16.4668 13.873 16.4668ZM13.873 13.8477C14.5879 13.8477 15.25 13.6426 15.8594 13.2324C16.4688 12.8105 16.9551 12.2539 17.3184 11.5625C17.6816 10.8594 17.8633 10.0801 17.8633 9.22461C17.8633 8.39258 17.6816 7.64258 17.3184 6.97461C16.9668 6.30664 16.4863 5.7793 15.877 5.39258C15.2793 4.99414 14.6113 4.79492 13.873 4.79492C13.1465 4.79492 12.4785 4.99414 11.8691 5.39258C11.2715 5.79102 10.791 6.33008 10.4277 7.00977C10.0762 7.67773 9.90039 8.42773 9.90039 9.25977C9.90039 10.1035 10.082 10.877 10.4453 11.5801C10.8086 12.2715 11.2891 12.8223 11.8867 13.2324C12.4961 13.6426 13.1582 13.8477 13.873 13.8477Z" fill="#0366C8"/>
</svg>
