<svg width="38" height="38" viewBox="0 0 38 38" fill="none" xmlns="http://www.w3.org/2000/svg">
<path d="M19 34.6562C16.8021 34.6562 14.7396 34.2396 12.8125 33.4062C10.8854 32.5833 9.19271 31.4427 7.73438 29.9844C6.27604 28.526 5.13021 26.8333 4.29688 24.9062C3.47396 22.9792 3.0625 20.9167 3.0625 18.7188C3.0625 16.5208 3.47396 14.4583 4.29688 12.5312C5.13021 10.6042 6.27604 8.91146 7.73438 7.45312C9.19271 5.98438 10.8854 4.83854 12.8125 4.01562C14.7396 3.19271 16.8021 2.78125 19 2.78125C21.1979 2.78125 23.2604 3.19271 25.1875 4.01562C27.1146 4.83854 28.8073 5.98438 30.2656 7.45312C31.724 8.91146 32.8646 10.6042 33.6875 12.5312C34.5208 14.4583 34.9375 16.5208 34.9375 18.7188C34.9375 20.9167 34.5208 22.9792 33.6875 24.9062C32.8646 26.8333 31.724 28.526 30.2656 29.9844C28.8073 31.4427 27.1146 32.5833 25.1875 33.4062C23.2604 34.2396 21.1979 34.6562 19 34.6562ZM19 32C20.8333 32 22.5521 31.6562 24.1562 30.9688C25.7604 30.2812 27.1719 29.3281 28.3906 28.1094C29.6094 26.8906 30.5625 25.4792 31.25 23.875C31.9375 22.2708 32.2812 20.5521 32.2812 18.7188C32.2812 16.8854 31.9375 15.1667 31.25 13.5625C30.5625 11.9479 29.6094 10.5365 28.3906 9.32812C27.1719 8.10938 25.7604 7.15625 24.1562 6.46875C22.5521 5.78125 20.8333 5.4375 19 5.4375C17.1667 5.4375 15.4479 5.78125 13.8438 6.46875C12.2396 7.15625 10.8281 8.10938 9.60938 9.32812C8.39062 10.5365 7.4375 11.9479 6.75 13.5625C6.0625 15.1667 5.71875 16.8854 5.71875 18.7188C5.71875 20.5521 6.0625 22.2708 6.75 23.875C7.4375 25.4792 8.39062 26.8906 9.60938 28.1094C10.8281 29.3281 12.2396 30.2812 13.8438 30.9688C15.4479 31.6562 17.1667 32 19 32ZM29.6875 29.0156C28.7396 29.9427 27.625 30.7344 26.3438 31.3906C25.0729 32.0469 23.7865 32.5469 22.4844 32.8906C21.1823 33.2448 20.0208 33.4219 19 33.4219C17.9896 33.4219 16.8281 33.2448 15.5156 32.8906C14.2135 32.5469 12.9219 32.0469 11.6406 31.3906C10.3594 30.7344 9.25 29.9427 8.3125 29.0156L8.35938 28.8281C8.61979 28.0677 9.22917 27.3177 10.1875 26.5781C11.1458 25.8385 12.375 25.2292 13.875 24.75C15.3854 24.2708 17.0938 24.0312 19 24.0312C20.9167 24.0312 22.625 24.2708 24.125 24.75C25.6354 25.2292 26.8646 25.8385 27.8125 26.5781C28.7708 27.3177 29.3802 28.0729 29.6406 28.8438L29.6875 29.0156ZM19 21.375C18 21.3646 17.0938 21.1042 16.2812 20.5938C15.4792 20.0729 14.8385 19.3698 14.3594 18.4844C13.8906 17.599 13.651 16.599 13.6406 15.4844C13.6302 14.4323 13.8646 13.4688 14.3438 12.5938C14.8229 11.7188 15.4688 11.0208 16.2812 10.5C17.0938 9.96875 18 9.70312 19 9.70312C20 9.70312 20.901 9.96875 21.7031 10.5C22.5156 11.0208 23.1615 11.7188 23.6406 12.5938C24.1198 13.4688 24.3594 14.4323 24.3594 15.4844C24.3594 16.599 24.1198 17.6042 23.6406 18.5C23.1719 19.3958 22.5312 20.1042 21.7188 20.625C20.9062 21.1354 20 21.3854 19 21.375Z" fill="#0366C8"/>
</svg>
